# Blender 4.5.3 LTS Release Candidate
# www.blender.org
mtllib Obsidian.mtl
o Cube
v 1.000000 0.994260 -2.308080
v 1.000000 -1.005739 -1.000000
v 0.498002 2.521432 1.260339
v 1.000000 -1.005739 1.000000
v -1.000000 3.177603 -1.000000
v -1.000000 -1.005739 -1.000000
v -1.000000 4.240920 1.000000
v -1.112089 -1.178368 1.232882
vn 0.6848 0.6824 -0.2557
vn -0.0091 -0.0035 1.0000
vn -0.9995 0.0110 -0.0288
vn 0.0397 -0.9984 -0.0397
vn 0.9929 0.1019 0.0616
vn -0.3973 -0.1899 -0.8978
vt 0.625000 0.500000
vt 0.875000 0.500000
vt 0.875000 0.750000
vt 0.625000 0.750000
vt 0.375000 0.750000
vt 0.625000 1.000000
vt 0.375000 1.000000
vt 0.375000 0.000000
vt 0.625000 0.000000
vt 0.625000 0.250000
vt 0.375000 0.250000
vt 0.125000 0.500000
vt 0.375000 0.500000
vt 0.125000 0.750000
s 0
usemtl Material
f 1/1/1 5/2/1 7/3/1 3/4/1
f 4/5/2 3/4/2 7/6/2 8/7/2
f 8/8/3 7/9/3 5/10/3 6/11/3
f 6/12/4 2/13/4 4/5/4 8/14/4
f 2/13/5 1/1/5 3/4/5 4/5/5
f 6/11/6 5/10/6 1/1/6 2/13/6
